<?xml version="1.0" encoding="UTF-8" standalone="no"?>
<!DOCTYPE svg PUBLIC "-//W3C//DTD SVG 1.1//EN"
 "http://www.w3.org/Graphics/SVG/1.1/DTD/svg11.dtd">
<!-- Generated by graphviz version 2.46.1 (0)
 -->
<!-- Pages: 1 -->
<svg width="977pt" height="811pt"
 viewBox="0.00 0.00 977.26 811.00" xmlns="http://www.w3.org/2000/svg" xmlns:xlink="http://www.w3.org/1999/xlink">
<g id="graph0" class="graph" transform="scale(1 1) rotate(0) translate(4 807)">
<polygon fill="white" stroke="transparent" points="-4,4 -4,-807 973.26,-807 973.26,4 -4,4"/>
<!-- pl2 -->
<g id="node1" class="node">
<title>pl2</title>
<ellipse fill="none" stroke="red" cx="27" cy="-426" rx="27" ry="18"/>
</g>
<!-- pl7 -->
<g id="node2" class="node">
<title>pl7</title>
<ellipse fill="none" stroke="red" cx="502.38" cy="-426" rx="27" ry="18"/>
</g>
<!-- pl2&#45;&gt;pl7 -->
<g id="edge1" class="edge">
<title>pl2&#45;&gt;pl7</title>
<path fill="none" stroke="blue" d="M54.27,-426C135,-426 372.95,-426 465.22,-426"/>
<polygon fill="blue" stroke="blue" points="465.23,-429.5 475.23,-426 465.23,-422.5 465.23,-429.5"/>
<text text-anchor="middle" x="228.75" y="-429.8" font-family="Times,serif" font-size="14.00">ACROSS</text>
</g>
<!-- pl57 -->
<g id="node3" class="node">
<title>pl57</title>
<ellipse fill="none" stroke="red" cx="422.26" cy="-276.24" rx="71" ry="18"/>
<text text-anchor="middle" x="422.26" y="-272.54" font-family="Times,serif" font-size="14.00">Popocatepetl</text>
</g>
<!-- pl7&#45;&gt;pl57 -->
<g id="edge2" class="edge">
<title>pl7&#45;&gt;pl57</title>
<path fill="none" stroke="red" d="M497.78,-408.21C486.97,-382.13 461.37,-333.47 442.83,-303.06"/>
<polygon fill="red" stroke="red" points="445.59,-300.88 437.33,-294.25 439.66,-304.59 445.59,-300.88"/>
<text text-anchor="middle" x="459.31" y="-359.43" font-family="Times,serif" font-size="14.00">EC</text>
</g>
<!-- pl58 -->
<g id="node4" class="node">
<title>pl58</title>
<ellipse fill="none" stroke="red" cx="733.54" cy="-481.33" rx="60" ry="18"/>
<text text-anchor="middle" x="733.54" y="-477.63" font-family="Times,serif" font-size="14.00">Iztacihuatl</text>
</g>
<!-- pl7&#45;&gt;pl58 -->
<g id="edge3" class="edge">
<title>pl7&#45;&gt;pl58</title>
<path fill="none" stroke="red" d="M528,-432.13C563.67,-440.67 629.25,-456.37 676.76,-467.74"/>
<polygon fill="red" stroke="red" points="676.06,-471.17 686.6,-470.1 677.69,-464.36 676.06,-471.17"/>
<text text-anchor="middle" x="591.38" y="-453.74" font-family="Times,serif" font-size="14.00">EC</text>
</g>
<!-- pl57&#45;&gt;pl7 -->
<g id="edge4" class="edge">
<title>pl57&#45;&gt;pl7</title>
<path fill="none" stroke="blue" d="M426.98,-294.33C438.18,-321.24 464.82,-371.7 483.39,-401.76"/>
<polygon fill="blue" stroke="blue" points="480.55,-403.82 488.87,-410.39 486.46,-400.07 480.55,-403.82"/>
<text text-anchor="middle" x="424.18" y="-336.85" font-family="Times,serif" font-size="14.00">ACROSS</text>
</g>
<!-- p16 -->
<g id="node5" class="node">
<title>p16</title>
<ellipse fill="none" stroke="blue" cx="339.85" cy="-122.21" rx="32" ry="18"/>
<text text-anchor="middle" x="339.85" y="-118.51" font-family="Times,serif" font-size="14.00">pass</text>
</g>
<!-- pl57&#45;&gt;p16 -->
<g id="edge5" class="edge">
<title>pl57&#45;&gt;p16</title>
<path fill="none" stroke="blue" d="M412.64,-258.27C398.18,-231.23 370.72,-179.92 353.98,-148.62"/>
<polygon fill="blue" stroke="blue" points="356.96,-146.76 349.15,-139.6 350.79,-150.07 356.96,-146.76"/>
<text text-anchor="middle" x="383.31" y="-192.25" font-family="Times,serif" font-size="14.00">ACROSS</text>
</g>
<!-- pl3 -->
<g id="node6" class="node">
<title>pl3</title>
<ellipse fill="none" stroke="red" cx="390.25" cy="-635.58" rx="27" ry="18"/>
</g>
<!-- pl3&#45;&gt;pl7 -->
<g id="edge6" class="edge">
<title>pl3&#45;&gt;pl7</title>
<path fill="none" stroke="red" d="M399.43,-618.43C419.07,-581.72 465.26,-495.38 488.51,-451.93"/>
<polygon fill="red" stroke="red" points="491.61,-453.56 493.24,-443.09 485.44,-450.26 491.61,-453.56"/>
<text text-anchor="middle" x="432.97" y="-538.98" font-family="Times,serif" font-size="14.00">EC</text>
</g>
<!-- pl19 -->
<g id="node7" class="node">
<title>pl19</title>
<ellipse fill="none" stroke="red" cx="690.38" cy="-278" rx="28" ry="18"/>
<text text-anchor="middle" x="690.38" y="-274.3" font-family="Times,serif" font-size="14.00">city</text>
</g>
<!-- pl24 -->
<g id="node8" class="node">
<title>pl24</title>
<ellipse fill="none" stroke="red" cx="511.38" cy="-616" rx="69" ry="18"/>
<text text-anchor="middle" x="511.38" y="-612.3" font-family="Times,serif" font-size="14.00">organization</text>
</g>
<!-- pl31 -->
<g id="node9" class="node">
<title>pl31</title>
<ellipse fill="none" stroke="red" cx="711.38" cy="-343" rx="34" ry="18"/>
<text text-anchor="middle" x="711.38" y="-339.3" font-family="Times,serif" font-size="14.00">town</text>
</g>
<!-- pl32 -->
<g id="node10" class="node">
<title>pl32</title>
<ellipse fill="none" stroke="red" cx="729.38" cy="-408" rx="144.5" ry="18"/>
<text text-anchor="middle" x="729.38" y="-404.3" font-family="Times,serif" font-size="14.00">National Institute of Ecology</text>
</g>
<!-- pl34 -->
<g id="node11" class="node">
<title>pl34</title>
<ellipse fill="none" stroke="red" cx="720.38" cy="-681" rx="44.39" ry="18"/>
<text text-anchor="middle" x="720.38" y="-677.3" font-family="Times,serif" font-size="14.00">Mexico</text>
</g>
<!-- pl35 -->
<g id="node12" class="node">
<title>pl35</title>
<ellipse fill="none" stroke="red" cx="81.38" cy="-187" rx="29.5" ry="18"/>
<text text-anchor="middle" x="81.38" y="-183.3" font-family="Times,serif" font-size="14.00">U.S.</text>
</g>
<!-- pl38 -->
<g id="node13" class="node">
<title>pl38</title>
<ellipse fill="none" stroke="red" cx="596.38" cy="-681" rx="50.09" ry="18"/>
<text text-anchor="middle" x="596.38" y="-677.3" font-family="Times,serif" font-size="14.00">institute</text>
</g>
<!-- pl10 -->
<g id="node14" class="node">
<title>pl10</title>
<ellipse fill="none" stroke="red" cx="224.38" cy="-694" rx="42.49" ry="18"/>
<text text-anchor="middle" x="224.38" y="-690.3" font-family="Times,serif" font-size="14.00">shacks</text>
</g>
<!-- pl40 -->
<g id="node15" class="node">
<title>pl40</title>
<ellipse fill="none" stroke="red" cx="461.38" cy="-148" rx="58" ry="18"/>
<text text-anchor="middle" x="461.38" y="-144.3" font-family="Times,serif" font-size="14.00">Venezuela</text>
</g>
<!-- pl53 -->
<g id="node16" class="node">
<title>pl53</title>
<ellipse fill="none" stroke="red" cx="667.38" cy="-44" rx="30" ry="18"/>
<text text-anchor="middle" x="667.38" y="-40.3" font-family="Times,serif" font-size="14.00">lake</text>
</g>
<!-- pl44 -->
<g id="node17" class="node">
<title>pl44</title>
<ellipse fill="none" stroke="red" cx="138.38" cy="-564" rx="34.5" ry="18"/>
<text text-anchor="middle" x="138.38" y="-560.3" font-family="Times,serif" font-size="14.00">ruins</text>
</g>
<!-- pl11 -->
<g id="node18" class="node">
<title>pl11</title>
<ellipse fill="none" stroke="red" cx="561.38" cy="-486" rx="41" ry="18"/>
<text text-anchor="middle" x="561.38" y="-482.3" font-family="Times,serif" font-size="14.00">homes</text>
</g>
<!-- pl16 -->
<g id="node19" class="node">
<title>pl16</title>
<ellipse fill="none" stroke="red" cx="138.38" cy="-317" rx="34.5" ry="18"/>
<text text-anchor="middle" x="138.38" y="-313.3" font-family="Times,serif" font-size="14.00">ruins</text>
</g>
<!-- pl46 -->
<g id="node20" class="node">
<title>pl46</title>
<ellipse fill="none" stroke="red" cx="745.38" cy="-109" rx="43" ry="18"/>
<text text-anchor="middle" x="745.38" y="-105.3" font-family="Times,serif" font-size="14.00">temple</text>
</g>
<!-- pl47 -->
<g id="node21" class="node">
<title>pl47</title>
<ellipse fill="none" stroke="red" cx="466.38" cy="-694" rx="50.09" ry="18"/>
<text text-anchor="middle" x="466.38" y="-690.3" font-family="Times,serif" font-size="14.00">museum</text>
</g>
<!-- pl48 -->
<g id="node22" class="node">
<title>pl48</title>
<ellipse fill="none" stroke="red" cx="600.44" cy="-551" rx="54" ry="18"/>
<text text-anchor="middle" x="600.44" y="-547.3" font-family="Times,serif" font-size="14.00">pyramids</text>
</g>
<!-- pl49 -->
<g id="node23" class="node">
<title>pl49</title>
<ellipse fill="none" stroke="red" cx="793.33" cy="-551" rx="67" ry="18"/>
<text text-anchor="middle" x="793.33" y="-547.3" font-family="Times,serif" font-size="14.00">Teotihuacan</text>
</g>
<!-- pl48&#45;&gt;pl49 -->
<g id="edge7" class="edge">
<title>pl48&#45;&gt;pl49</title>
<path fill="none" stroke="red" d="M654.42,-551C673.58,-551 695.53,-551 716.23,-551"/>
<polygon fill="red" stroke="red" points="716.28,-554.5 726.28,-551 716.28,-547.5 716.28,-554.5"/>
<text text-anchor="middle" x="676.33" y="-554.8" font-family="Times,serif" font-size="14.00">IN</text>
</g>
<!-- pl50 -->
<g id="node24" class="node">
<title>pl50</title>
<ellipse fill="none" stroke="red" cx="825.43" cy="-278" rx="32" ry="18"/>
<text text-anchor="middle" x="825.43" y="-274.3" font-family="Times,serif" font-size="14.00">here</text>
</g>
<!-- pl50&#45;&gt;pl19 -->
<g id="edge8" class="edge">
<title>pl50&#45;&gt;pl19</title>
<path fill="none" stroke="red" d="M793.42,-278C774.03,-278 749.17,-278 728.73,-278"/>
<polygon fill="red" stroke="red" points="728.49,-274.5 718.49,-278 728.49,-281.5 728.49,-274.5"/>
<text text-anchor="middle" x="752.07" y="-281.8" font-family="Times,serif" font-size="14.00">IN</text>
</g>
<!-- p6 -->
<g id="node25" class="node">
<title>p6</title>
<ellipse fill="none" stroke="blue" cx="259.93" cy="-382" rx="38.5" ry="18"/>
<text text-anchor="middle" x="259.93" y="-378.3" font-family="Times,serif" font-size="14.00">valley</text>
</g>
<!-- pl56 -->
<g id="node26" class="node">
<title>pl56</title>
<ellipse fill="none" stroke="red" cx="199.38" cy="-148" rx="56" ry="18"/>
<text text-anchor="middle" x="199.38" y="-144.3" font-family="Times,serif" font-size="14.00">volcanoes</text>
</g>
<!-- pl59 -->
<g id="node27" class="node">
<title>pl59</title>
<ellipse fill="none" stroke="red" cx="146.38" cy="-499" rx="42.49" ry="18"/>
<text text-anchor="middle" x="146.38" y="-495.3" font-family="Times,serif" font-size="14.00">capital</text>
</g>
<!-- pl20 -->
<g id="node28" class="node">
<title>pl20</title>
<ellipse fill="none" stroke="red" cx="126.38" cy="-252" rx="35.19" ry="18"/>
<text text-anchor="middle" x="126.38" y="-248.3" font-family="Times,serif" font-size="14.00">place</text>
</g>
<!-- pl0 -->
<g id="node29" class="node">
<title>pl0</title>
<ellipse fill="none" stroke="red" cx="716.38" cy="-616" rx="104.78" ry="18"/>
<text text-anchor="middle" x="716.38" y="-612.3" font-family="Times,serif" font-size="14.00">Logos middle school</text>
</g>
<!-- pl17 -->
<g id="node30" class="node">
<title>pl17</title>
<ellipse fill="none" stroke="red" cx="261.38" cy="-317" rx="66.5" ry="18"/>
<text text-anchor="middle" x="261.38" y="-313.3" font-family="Times,serif" font-size="14.00">Los Angeles</text>
</g>
<!-- se8 -->
<g id="node31" class="node">
<title>se8</title>
<ellipse fill="none" stroke="green" cx="264.53" cy="-499" rx="43.59" ry="18"/>
<text text-anchor="middle" x="264.53" y="-495.3" font-family="Times,serif" font-size="14.00">vehicle</text>
</g>
<!-- p3 -->
<g id="node32" class="node">
<title>p3</title>
<ellipse fill="none" stroke="blue" cx="411.93" cy="-499" rx="32" ry="18"/>
<text text-anchor="middle" x="411.93" y="-495.3" font-family="Times,serif" font-size="14.00">road</text>
</g>
<!-- se8&#45;&gt;p3 -->
<g id="edge9" class="edge">
<title>se8&#45;&gt;p3</title>
<path fill="none" stroke="blue" d="M308.36,-499C327.69,-499 350.32,-499 369.49,-499"/>
<polygon fill="blue" stroke="blue" points="369.74,-502.5 379.74,-499 369.74,-495.5 369.74,-502.5"/>
<text text-anchor="middle" x="351.93" y="-487.8" font-family="Times,serif" font-size="14.00">ABOVE</text>
</g>
<!-- se55 -->
<g id="node33" class="node">
<title>se55</title>
<ellipse fill="none" stroke="green" cx="755.38" cy="-44" rx="27" ry="18"/>
<text text-anchor="middle" x="755.38" y="-40.3" font-family="Times,serif" font-size="14.00">I</text>
</g>
<!-- se9 -->
<g id="node34" class="node">
<title>se9</title>
<ellipse fill="none" stroke="green" cx="122.38" cy="-785" rx="30.59" ry="18"/>
<text text-anchor="middle" x="122.38" y="-781.3" font-family="Times,serif" font-size="14.00">cars</text>
</g>
<!-- se10 -->
<g id="node35" class="node">
<title>se10</title>
<ellipse fill="none" stroke="green" cx="123.38" cy="-720" rx="32.5" ry="18"/>
<text text-anchor="middle" x="123.38" y="-716.3" font-family="Times,serif" font-size="14.00">light</text>
</g>
<!-- se12 -->
<g id="node36" class="node">
<title>se12</title>
<ellipse fill="none" stroke="green" cx="155.38" cy="-382" rx="37.89" ry="18"/>
<text text-anchor="middle" x="155.38" y="-378.3" font-family="Times,serif" font-size="14.00">buses</text>
</g>
<!-- se13 -->
<g id="node37" class="node">
<title>se13</title>
<ellipse fill="none" stroke="green" cx="111.38" cy="-83" rx="33.29" ry="18"/>
<text text-anchor="middle" x="111.38" y="-79.3" font-family="Times,serif" font-size="14.00">taxis</text>
</g>
<!-- se40 -->
<g id="node38" class="node">
<title>se40</title>
<ellipse fill="none" stroke="green" cx="729.38" cy="-213" rx="53.5" ry="18"/>
<text text-anchor="middle" x="729.38" y="-209.3" font-family="Times,serif" font-size="14.00">Bicitekas</text>
</g>
<!-- se17 -->
<g id="node39" class="node">
<title>se17</title>
<ellipse fill="none" stroke="green" cx="203.38" cy="-83" rx="34.5" ry="18"/>
<text text-anchor="middle" x="203.38" y="-79.3" font-family="Times,serif" font-size="14.00">team</text>
</g>
<!-- se1 -->
<g id="node40" class="node">
<title>se1</title>
<ellipse fill="none" stroke="green" cx="777.38" cy="-746" rx="36" ry="18"/>
<text text-anchor="middle" x="777.38" y="-742.3" font-family="Times,serif" font-size="14.00">cloud</text>
</g>
<!-- se41 -->
<g id="node41" class="node">
<title>se41</title>
<ellipse fill="none" stroke="green" cx="445.38" cy="-83" rx="41.69" ry="18"/>
<text text-anchor="middle" x="445.38" y="-79.3" font-family="Times,serif" font-size="14.00">people</text>
</g>
<!-- se19 -->
<g id="node42" class="node">
<title>se19</title>
<ellipse fill="none" stroke="green" cx="681.38" cy="-746" rx="31.4" ry="18"/>
<text text-anchor="middle" x="681.38" y="-742.3" font-family="Times,serif" font-size="14.00">they</text>
</g>
<!-- se22 -->
<g id="node43" class="node">
<title>se22</title>
<ellipse fill="none" stroke="green" cx="590.38" cy="-746" rx="31.4" ry="18"/>
<text text-anchor="middle" x="590.38" y="-742.3" font-family="Times,serif" font-size="14.00">they</text>
</g>
<!-- se23 -->
<g id="node44" class="node">
<title>se23</title>
<ellipse fill="none" stroke="green" cx="461.99" cy="-213" rx="45.5" ry="18"/>
<text text-anchor="middle" x="461.99" y="-209.3" font-family="Times,serif" font-size="14.00">cyclists</text>
</g>
<!-- p9 -->
<g id="node45" class="node">
<title>p9</title>
<ellipse fill="none" stroke="blue" cx="615.88" cy="-213" rx="36.5" ry="18"/>
<text text-anchor="middle" x="615.88" y="-209.3" font-family="Times,serif" font-size="14.00">roads</text>
</g>
<!-- se23&#45;&gt;p9 -->
<g id="edge10" class="edge">
<title>se23&#45;&gt;p9</title>
<path fill="none" stroke="blue" d="M507.74,-213C527.12,-213 549.67,-213 569.15,-213"/>
<polygon fill="blue" stroke="blue" points="569.32,-216.5 579.32,-213 569.32,-209.5 569.32,-216.5"/>
<text text-anchor="middle" x="551.45" y="-201.8" font-family="Times,serif" font-size="14.00">ABOVE</text>
</g>
<!-- se25 -->
<g id="node46" class="node">
<title>se25</title>
<ellipse fill="none" stroke="green" cx="499.38" cy="-759" rx="31.4" ry="18"/>
<text text-anchor="middle" x="499.38" y="-755.3" font-family="Times,serif" font-size="14.00">they</text>
</g>
<!-- se26 -->
<g id="node47" class="node">
<title>se26</title>
<ellipse fill="none" stroke="green" cx="434.38" cy="-18" rx="30.59" ry="18"/>
<text text-anchor="middle" x="434.38" y="-14.3" font-family="Times,serif" font-size="14.00">man</text>
</g>
<!-- se42 -->
<g id="node48" class="node">
<title>se42</title>
<ellipse fill="none" stroke="green" cx="525.38" cy="-18" rx="30.59" ry="18"/>
<text text-anchor="middle" x="525.38" y="-14.3" font-family="Times,serif" font-size="14.00">man</text>
</g>
<!-- se43 -->
<g id="node49" class="node">
<title>se43</title>
<ellipse fill="none" stroke="green" cx="893.22" cy="-343" rx="76.09" ry="18"/>
<text text-anchor="middle" x="893.22" y="-339.3" font-family="Times,serif" font-size="14.00">infrastructure</text>
</g>
<!-- se43&#45;&gt;pl31 -->
<g id="edge11" class="edge">
<title>se43&#45;&gt;pl31</title>
<path fill="none" stroke="red" d="M817.16,-343C796.23,-343 774.23,-343 755.74,-343"/>
<polygon fill="red" stroke="red" points="755.58,-339.5 745.58,-343 755.58,-346.5 755.58,-339.5"/>
<text text-anchor="middle" x="777.45" y="-346.8" font-family="Times,serif" font-size="14.00">IN</text>
</g>
<!-- se45 -->
<g id="node50" class="node">
<title>se45</title>
<ellipse fill="none" stroke="green" cx="343.38" cy="-694" rx="44.39" ry="18"/>
<text text-anchor="middle" x="343.38" y="-690.3" font-family="Times,serif" font-size="14.00">woman</text>
</g>
<!-- se34 -->
<g id="node51" class="node">
<title>se34</title>
<ellipse fill="none" stroke="green" cx="264.38" cy="-629" rx="69" ry="18"/>
<text text-anchor="middle" x="264.38" y="-625.3" font-family="Times,serif" font-size="14.00">descendents</text>
</g>
<!-- se35 -->
<g id="node52" class="node">
<title>se35</title>
<ellipse fill="none" stroke="green" cx="607.38" cy="-148" rx="61.19" ry="18"/>
<text text-anchor="middle" x="607.38" y="-144.3" font-family="Times,serif" font-size="14.00">civilization</text>
</g>
<!-- se38 -->
<g id="node53" class="node">
<title>se38</title>
<ellipse fill="none" stroke="green" cx="274.38" cy="-213" rx="79.5" ry="18"/>
<text text-anchor="middle" x="274.38" y="-209.3" font-family="Times,serif" font-size="14.00">Hernan Cortez</text>
</g>
<!-- se39 -->
<g id="node54" class="node">
<title>se39</title>
<ellipse fill="none" stroke="green" cx="411.38" cy="-759" rx="34.5" ry="18"/>
<text text-anchor="middle" x="411.38" y="-755.3" font-family="Times,serif" font-size="14.00">army</text>
</g>
<!-- se5 -->
<g id="node55" class="node">
<title>se5</title>
<ellipse fill="none" stroke="green" cx="317.38" cy="-759" rx="31.4" ry="18"/>
<text text-anchor="middle" x="317.38" y="-755.3" font-family="Times,serif" font-size="14.00">they</text>
</g>
<!-- p4 -->
<g id="node56" class="node">
<title>p4</title>
<ellipse fill="none" stroke="blue" cx="226.23" cy="-564" rx="30.59" ry="18"/>
<text text-anchor="middle" x="226.23" y="-560.3" font-family="Times,serif" font-size="14.00">lane</text>
</g>
<!-- p5 -->
<g id="node57" class="node">
<title>p5</title>
<ellipse fill="none" stroke="blue" cx="361.93" cy="-564" rx="33.29" ry="18"/>
<text text-anchor="middle" x="361.93" y="-560.3" font-family="Times,serif" font-size="14.00">rows</text>
</g>
<!-- p4&#45;&gt;p5 -->
<g id="edge12" class="edge">
<title>p4&#45;&gt;p5</title>
<path fill="none" stroke="blue" d="M257.03,-564C275.14,-564 298.33,-564 318.3,-564"/>
<polygon fill="blue" stroke="blue" points="318.41,-567.5 328.41,-564 318.41,-560.5 318.41,-567.5"/>
<text text-anchor="middle" x="287.66" y="-552.8" font-family="Times,serif" font-size="14.00">BETWEEN</text>
</g>
<!-- p7 -->
<g id="node58" class="node">
<title>p7</title>
<ellipse fill="none" stroke="blue" cx="217.38" cy="-759" rx="35.19" ry="18"/>
<text text-anchor="middle" x="217.38" y="-755.3" font-family="Times,serif" font-size="14.00">lanes</text>
</g>
<!-- p8 -->
<g id="node59" class="node">
<title>p8</title>
<ellipse fill="none" stroke="blue" cx="555.34" cy="-278" rx="35.19" ry="18"/>
<text text-anchor="middle" x="555.34" y="-274.3" font-family="Times,serif" font-size="14.00">lanes</text>
</g>
<!-- p8&#45;&gt;pl19 -->
<g id="edge13" class="edge">
<title>p8&#45;&gt;pl19</title>
<path fill="none" stroke="red" d="M590.47,-278C609.41,-278 632.82,-278 652.21,-278"/>
<polygon fill="red" stroke="red" points="652.23,-281.5 662.23,-278 652.23,-274.5 652.23,-281.5"/>
<text text-anchor="middle" x="612.34" y="-281.8" font-family="Times,serif" font-size="14.00">IN</text>
</g>
<!-- p10 -->
<g id="node60" class="node">
<title>p10</title>
<ellipse fill="none" stroke="blue" cx="529.54" cy="-343" rx="35.19" ry="18"/>
<text text-anchor="middle" x="529.54" y="-339.3" font-family="Times,serif" font-size="14.00">lanes</text>
</g>
<!-- p10&#45;&gt;pl31 -->
<g id="edge14" class="edge">
<title>p10&#45;&gt;pl31</title>
<path fill="none" stroke="red" d="M565.03,-343C594.28,-343 635.91,-343 667.3,-343"/>
<polygon fill="red" stroke="red" points="667.52,-346.5 677.52,-343 667.52,-339.5 667.52,-346.5"/>
<text text-anchor="middle" x="607.17" y="-346.8" font-family="Times,serif" font-size="14.00">IN</text>
</g>
<!-- p11 -->
<g id="node61" class="node">
<title>p11</title>
<ellipse fill="none" stroke="blue" cx="564.38" cy="-83" rx="43.59" ry="18"/>
<text text-anchor="middle" x="564.38" y="-79.3" font-family="Times,serif" font-size="14.00">streets</text>
</g>
<!-- p1 -->
<g id="node62" class="node">
<title>p1</title>
<ellipse fill="none" stroke="blue" cx="404.73" cy="-382" rx="34.5" ry="18"/>
<text text-anchor="middle" x="404.73" y="-378.3" font-family="Times,serif" font-size="14.00">sides</text>
</g>
<!-- p1&#45;&gt;p6 -->
<g id="edge15" class="edge">
<title>p1&#45;&gt;p6</title>
<path fill="none" stroke="red" d="M370.05,-382C351.67,-382 328.78,-382 308.65,-382"/>
<polygon fill="red" stroke="red" points="308.41,-378.5 298.41,-382 308.41,-385.5 308.41,-378.5"/>
<text text-anchor="middle" x="324.85" y="-385.8" font-family="Times,serif" font-size="14.00">TPP</text>
</g>
<!-- p0 -->
<g id="node63" class="node">
<title>p0</title>
<ellipse fill="none" stroke="blue" cx="296.38" cy="-57" rx="36" ry="18"/>
<text text-anchor="middle" x="296.38" y="-53.3" font-family="Times,serif" font-size="14.00">route</text>
</g>
<!-- p2 -->
<g id="node64" class="node">
<title>p2</title>
<ellipse fill="none" stroke="blue" cx="131.38" cy="-629" rx="40.5" ry="18"/>
<text text-anchor="middle" x="131.38" y="-625.3" font-family="Times,serif" font-size="14.00">routes</text>
</g>
</g>
</svg>
