<?xml version="1.0" encoding="UTF-8" standalone="no"?>
<!DOCTYPE svg PUBLIC "-//W3C//DTD SVG 1.1//EN"
 "http://www.w3.org/Graphics/SVG/1.1/DTD/svg11.dtd">
<!-- Generated by graphviz version 2.46.1 (0)
 -->
<!-- Pages: 1 -->
<svg width="2323pt" height="1564pt"
 viewBox="0.00 0.00 2322.81 1563.70" xmlns="http://www.w3.org/2000/svg" xmlns:xlink="http://www.w3.org/1999/xlink">
<g id="graph0" class="graph" transform="scale(1 1) rotate(0) translate(4 1559.7)">
<polygon fill="white" stroke="transparent" points="-4,4 -4,-1559.7 2318.81,-1559.7 2318.81,4 -4,4"/>
<!-- pl29 -->
<g id="node1" class="node">
<title>pl29</title>
<ellipse fill="none" stroke="red" cx="1821.61" cy="-1289.4" rx="114.5" ry="18"/>
<text text-anchor="middle" x="1821.61" y="-1285.7" font-family="Times,serif" font-size="14.00">Casón del Buen Retiro</text>
</g>
<!-- pl30 -->
<g id="node2" class="node">
<title>pl30</title>
<ellipse fill="none" stroke="red" cx="2035.01" cy="-1289.4" rx="27" ry="18"/>
<text text-anchor="middle" x="2035.01" y="-1285.7" font-family="Times,serif" font-size="14.00">hill</text>
</g>
<!-- pl29&#45;&gt;pl30 -->
<g id="edge1" class="edge">
<title>pl29&#45;&gt;pl30</title>
<path fill="none" stroke="blue" d="M1936.11,-1289.4C1958.41,-1289.4 1980.21,-1289.4 1997.61,-1289.4"/>
<polygon fill="blue" stroke="blue" points="1997.91,-1292.9 2007.91,-1289.4 1997.91,-1285.9 1997.91,-1292.9"/>
<text text-anchor="middle" x="1955.81" y="-1293.2" font-family="Times,serif" font-size="14.00">UP</text>
</g>
<!-- p1 -->
<g id="node3" class="node">
<title>p1</title>
<ellipse fill="none" stroke="blue" cx="2224.31" cy="-1289.4" rx="90.5" ry="18"/>
<text text-anchor="middle" x="2224.31" y="-1285.7" font-family="Times,serif" font-size="14.00">calle de Felipe IV</text>
</g>
<!-- pl30&#45;&gt;p1 -->
<g id="edge2" class="edge">
<title>pl30&#45;&gt;p1</title>
<path fill="none" stroke="red" d="M2062.11,-1289.4C2078.71,-1289.4 2101.01,-1289.4 2123.81,-1289.4"/>
<polygon fill="red" stroke="red" points="2123.91,-1292.9 2133.91,-1289.4 2123.91,-1285.9 2123.91,-1292.9"/>
<text text-anchor="middle" x="2081.91" y="-1293.2" font-family="Times,serif" font-size="14.00">PO</text>
</g>
<!-- pl49 -->
<g id="node4" class="node">
<title>pl49</title>
<ellipse fill="none" stroke="red" cx="639.59" cy="-1041.4" rx="50.09" ry="18"/>
<text text-anchor="middle" x="639.59" y="-1037.7" font-family="Times,serif" font-size="14.00">Córdoba</text>
</g>
<!-- pl50 -->
<g id="node5" class="node">
<title>pl50</title>
<ellipse fill="none" stroke="red" cx="724.59" cy="-452.41" rx="42.49" ry="18"/>
<text text-anchor="middle" x="724.59" y="-448.71" font-family="Times,serif" font-size="14.00">Seville</text>
</g>
<!-- pl51 -->
<g id="node6" class="node">
<title>pl51</title>
<ellipse fill="none" stroke="red" cx="532.59" cy="-1227.4" rx="36.5" ry="18"/>
<text text-anchor="middle" x="532.59" y="-1223.7" font-family="Times,serif" font-size="14.00">south</text>
</g>
<!-- pl52 -->
<g id="node7" class="node">
<title>pl52</title>
<ellipse fill="none" stroke="red" cx="533.59" cy="-669.41" rx="37.09" ry="18"/>
<text text-anchor="middle" x="533.59" y="-665.71" font-family="Times,serif" font-size="14.00">Spain</text>
</g>
<!-- pl47 -->
<g id="node8" class="node">
<title>pl47</title>
<ellipse fill="none" stroke="red" cx="1383.61" cy="-1212.4" rx="36" ry="18"/>
<text text-anchor="middle" x="1383.61" y="-1208.7" font-family="Times,serif" font-size="14.00">affair</text>
</g>
<!-- p0 -->
<g id="node9" class="node">
<title>p0</title>
<ellipse fill="none" stroke="blue" cx="1653.41" cy="-1212.4" rx="27" ry="18"/>
</g>
<!-- pl47&#45;&gt;p0 -->
<g id="edge3" class="edge">
<title>pl47&#45;&gt;p0</title>
<path fill="none" stroke="blue" d="M1419.41,-1212.4C1470.61,-1212.4 1564.41,-1212.4 1616.31,-1212.4"/>
<polygon fill="blue" stroke="blue" points="1616.41,-1215.9 1626.41,-1212.4 1616.41,-1208.9 1616.41,-1215.9"/>
<text text-anchor="middle" x="1486.91" y="-1216.2" font-family="Times,serif" font-size="14.00">ACROSS</text>
</g>
<!-- pl59 -->
<g id="node10" class="node">
<title>pl59</title>
<ellipse fill="none" stroke="red" cx="1299.11" cy="-1323.6" rx="32" ry="18"/>
<text text-anchor="middle" x="1299.11" y="-1319.9" font-family="Times,serif" font-size="14.00">here</text>
</g>
<!-- pl59&#45;&gt;pl47 -->
<g id="edge4" class="edge">
<title>pl59&#45;&gt;pl47</title>
<path fill="none" stroke="blue" d="M1312.01,-1306.7C1325.91,-1288.3 1348.41,-1258.8 1364.41,-1237.6"/>
<polygon fill="blue" stroke="blue" points="1367.37,-1239.49 1370.61,-1229.4 1361.78,-1235.27 1367.37,-1239.49"/>
<text text-anchor="middle" x="1291.21" y="-1276" font-family="Times,serif" font-size="14.00">SOUTHEAST</text>
</g>
<!-- pl57 -->
<g id="node11" class="node">
<title>pl57</title>
<ellipse fill="none" stroke="red" cx="1179.31" cy="-1481.3" rx="94.48" ry="18"/>
<text text-anchor="middle" x="1179.31" y="-1477.6" font-family="Times,serif" font-size="14.00">c/ Fuenterrabía, 2</text>
</g>
<!-- pl59&#45;&gt;pl57 -->
<g id="edge5" class="edge">
<title>pl59&#45;&gt;pl57</title>
<path fill="none" stroke="red" d="M1286.51,-1340.2C1265.81,-1367.5 1224.31,-1422.1 1199.51,-1454.8"/>
<polygon fill="red" stroke="red" points="1196.52,-1452.94 1193.21,-1463 1202.07,-1457.2 1196.52,-1452.94"/>
<text text-anchor="middle" x="1234.01" y="-1401.3" font-family="Times,serif" font-size="14.00">IN</text>
</g>
<!-- pl2 -->
<g id="node12" class="node">
<title>pl2</title>
<ellipse fill="none" stroke="red" cx="748.59" cy="-696.41" rx="32" ry="18"/>
<text text-anchor="middle" x="748.59" y="-692.71" font-family="Times,serif" font-size="14.00">here</text>
</g>
<!-- pl81 -->
<g id="node13" class="node">
<title>pl81</title>
<ellipse fill="none" stroke="red" cx="974.44" cy="-452.41" rx="44.39" ry="18"/>
<text text-anchor="middle" x="974.44" y="-448.71" font-family="Times,serif" font-size="14.00">Madrid</text>
</g>
<!-- pl65 -->
<g id="node14" class="node">
<title>pl65</title>
<ellipse fill="none" stroke="red" cx="1433.71" cy="-696.41" rx="63.89" ry="18"/>
<text text-anchor="middle" x="1433.71" y="-692.71" font-family="Times,serif" font-size="14.00">Retiro Park</text>
</g>
<!-- pl65&#45;&gt;pl2 -->
<g id="edge6" class="edge">
<title>pl65&#45;&gt;pl2</title>
<path fill="none" stroke="blue" d="M1369.91,-696.41C1231.51,-696.41 907.13,-696.41 790.93,-696.41"/>
<polygon fill="blue" stroke="blue" points="790.67,-692.91 780.67,-696.41 790.67,-699.91 790.67,-692.91"/>
<text text-anchor="middle" x="1060.41" y="-700.21" font-family="Times,serif" font-size="14.00">EAST</text>
</g>
<!-- pl66 -->
<g id="node15" class="node">
<title>pl66</title>
<ellipse fill="none" stroke="red" cx="1120.11" cy="-522.64" rx="37.89" ry="18"/>
<text text-anchor="middle" x="1120.11" y="-518.94" font-family="Times,serif" font-size="14.00">lawns</text>
</g>
<!-- pl66&#45;&gt;pl65 -->
<g id="edge7" class="edge">
<title>pl66&#45;&gt;pl65</title>
<path fill="none" stroke="red" d="M1145.01,-536.42C1199.51,-566.64 1330.01,-638.92 1395.21,-675.07"/>
<polygon fill="red" stroke="red" points="1393.87,-678.33 1404.31,-680.13 1397.27,-672.21 1393.87,-678.33"/>
<text text-anchor="middle" x="1261.11" y="-609.54" font-family="Times,serif" font-size="14.00">IN</text>
</g>
<!-- pl67 -->
<g id="node16" class="node">
<title>pl67</title>
<ellipse fill="none" stroke="red" cx="1395.41" cy="-339.98" rx="48.19" ry="18"/>
<text text-anchor="middle" x="1395.41" y="-336.28" font-family="Times,serif" font-size="14.00">gardens</text>
</g>
<!-- pl67&#45;&gt;pl65 -->
<g id="edge8" class="edge">
<title>pl67&#45;&gt;pl65</title>
<path fill="none" stroke="red" d="M1397.41,-358.14C1403.61,-416.18 1423.11,-597.44 1430.61,-667.95"/>
<polygon fill="red" stroke="red" points="1427.17,-668.71 1431.71,-678.28 1434.13,-667.97 1427.17,-668.71"/>
<text text-anchor="middle" x="1405.01" y="-516.84" font-family="Times,serif" font-size="14.00">IN</text>
</g>
<!-- pl68 -->
<g id="node17" class="node">
<title>pl68</title>
<ellipse fill="none" stroke="red" cx="531.59" cy="-452.41" rx="35.19" ry="18"/>
<text text-anchor="middle" x="531.59" y="-448.71" font-family="Times,serif" font-size="14.00">place</text>
</g>
<!-- pl69 -->
<g id="node18" class="node">
<title>pl69</title>
<ellipse fill="none" stroke="red" cx="1809.01" cy="-476.98" rx="30" ry="18"/>
<text text-anchor="middle" x="1809.01" y="-473.28" font-family="Times,serif" font-size="14.00">lake</text>
</g>
<!-- pl70 -->
<g id="node19" class="node">
<title>pl70</title>
<ellipse fill="none" stroke="red" cx="1686.31" cy="-548.75" rx="40.5" ry="18"/>
<text text-anchor="middle" x="1686.31" y="-545.05" font-family="Times,serif" font-size="14.00">center</text>
</g>
<!-- pl69&#45;&gt;pl70 -->
<g id="edge9" class="edge">
<title>pl69&#45;&gt;pl70</title>
<path fill="none" stroke="red" d="M1787.41,-489.65C1768.71,-500.56 1741.41,-516.5 1719.91,-529.07"/>
<polygon fill="red" stroke="red" points="1717.96,-526.15 1711.11,-534.23 1721.5,-532.19 1717.96,-526.15"/>
<text text-anchor="middle" x="1744.71" y="-513.16" font-family="Times,serif" font-size="14.00">IN</text>
</g>
<!-- pl70&#45;&gt;pl65 -->
<g id="edge10" class="edge">
<title>pl70&#45;&gt;pl65</title>
<path fill="none" stroke="red" d="M1661.61,-563.17C1617.01,-589.25 1522.71,-644.37 1470.51,-674.91"/>
<polygon fill="red" stroke="red" points="1468.4,-672.09 1461.51,-680.13 1471.91,-678.14 1468.4,-672.09"/>
<text text-anchor="middle" x="1545.51" y="-622.84" font-family="Times,serif" font-size="14.00">NTPP</text>
</g>
<!-- pl73 -->
<g id="node20" class="node">
<title>pl73</title>
<ellipse fill="none" stroke="red" cx="1286.61" cy="-483.41" rx="77.5" ry="18"/>
<text text-anchor="middle" x="1286.61" y="-479.71" font-family="Times,serif" font-size="14.00">Crystal Palace</text>
</g>
<!-- pl74 -->
<g id="node21" class="node">
<title>pl74</title>
<ellipse fill="none" stroke="red" cx="1353.61" cy="-855.41" rx="51.5" ry="18"/>
<text text-anchor="middle" x="1353.61" y="-851.71" font-family="Times,serif" font-size="14.00">solarium</text>
</g>
<!-- pl75 -->
<g id="node22" class="node">
<title>pl75</title>
<ellipse fill="none" stroke="red" cx="741.33" cy="-1296.7" rx="120.48" ry="18"/>
<text text-anchor="middle" x="741.33" y="-1293" font-family="Times,serif" font-size="14.00">Royal Botanical Garden</text>
</g>
<!-- pl75&#45;&gt;pl2 -->
<g id="edge11" class="edge">
<title>pl75&#45;&gt;pl2</title>
<path fill="none" stroke="blue" d="M741.55,-1278.4C742.59,-1192.6 746.98,-829.22 748.25,-724.66"/>
<polygon fill="blue" stroke="blue" points="751.75,-724.6 748.37,-714.56 744.75,-724.52 751.75,-724.6"/>
<text text-anchor="middle" x="715.9" y="-1005.3" font-family="Times,serif" font-size="14.00">BESIDE</text>
</g>
<!-- pl79 -->
<g id="node23" class="node">
<title>pl79</title>
<ellipse fill="none" stroke="red" cx="1512.71" cy="-854.39" rx="41" ry="18"/>
<text text-anchor="middle" x="1512.71" y="-850.69" font-family="Times,serif" font-size="14.00">corner</text>
</g>
<!-- pl79&#45;&gt;pl65 -->
<g id="edge12" class="edge">
<title>pl79&#45;&gt;pl65</title>
<path fill="none" stroke="red" d="M1503.81,-836.58C1490.01,-809.08 1463.51,-756.1 1447.41,-723.73"/>
<polygon fill="red" stroke="red" points="1450.33,-721.76 1442.71,-714.4 1444.08,-724.91 1450.33,-721.76"/>
<text text-anchor="middle" x="1461.11" y="-783.95" font-family="Times,serif" font-size="14.00">TPP</text>
</g>
<!-- pl83 -->
<g id="node24" class="node">
<title>pl83</title>
<ellipse fill="none" stroke="red" cx="969.39" cy="-638.41" rx="38.5" ry="18"/>
<text text-anchor="middle" x="969.39" y="-634.71" font-family="Times,serif" font-size="14.00">which</text>
</g>
<!-- pl84 -->
<g id="node25" class="node">
<title>pl84</title>
<ellipse fill="none" stroke="red" cx="1123.91" cy="-638.41" rx="44.39" ry="18"/>
<text text-anchor="middle" x="1123.91" y="-634.71" font-family="Times,serif" font-size="14.00">barrios</text>
</g>
<!-- pl84&#45;&gt;pl83 -->
<g id="edge13" class="edge">
<title>pl84&#45;&gt;pl83</title>
<path fill="none" stroke="blue" d="M1079.61,-638.41C1060.31,-638.41 1037.71,-638.41 1017.91,-638.41"/>
<polygon fill="blue" stroke="blue" points="1017.91,-634.91 1007.91,-638.41 1017.91,-641.91 1017.91,-634.91"/>
<text text-anchor="middle" x="1028.81" y="-642.21" font-family="Times,serif" font-size="14.00">EAST</text>
</g>
<!-- pl4 -->
<g id="node26" class="node">
<title>pl4</title>
<ellipse fill="none" stroke="red" cx="1263.61" cy="-390.41" rx="54" ry="18"/>
<text text-anchor="middle" x="1263.61" y="-386.71" font-family="Times,serif" font-size="14.00">Zaragoza</text>
</g>
<!-- pl8 -->
<g id="node27" class="node">
<title>pl8</title>
<ellipse fill="none" stroke="red" cx="657.59" cy="-359.41" rx="37.09" ry="18"/>
<text text-anchor="middle" x="657.59" y="-355.71" font-family="Times,serif" font-size="14.00">scene</text>
</g>
<!-- pl9 -->
<g id="node28" class="node">
<title>pl9</title>
<ellipse fill="none" stroke="red" cx="255.01" cy="-1171.5" rx="39.79" ry="18"/>
<text text-anchor="middle" x="255.01" y="-1167.8" font-family="Times,serif" font-size="14.00">rooms</text>
</g>
<!-- pl9&#45;&gt;pl2 -->
<g id="edge14" class="edge">
<title>pl9&#45;&gt;pl2</title>
<path fill="none" stroke="red" d="M272,-1155.2C345.81,-1084.1 638.75,-802.15 724.74,-719.37"/>
<polygon fill="red" stroke="red" points="727.39,-721.67 732.17,-712.21 722.54,-716.63 727.39,-721.67"/>
<text text-anchor="middle" x="489.37" y="-941.08" font-family="Times,serif" font-size="14.00">IN</text>
</g>
<!-- pl11 -->
<g id="node29" class="node">
<title>pl11</title>
<ellipse fill="none" stroke="red" cx="1427.61" cy="-1041.4" rx="32.5" ry="18"/>
<text text-anchor="middle" x="1427.61" y="-1037.7" font-family="Times,serif" font-size="14.00">floor</text>
</g>
<!-- pl12 -->
<g id="node30" class="node">
<title>pl12</title>
<ellipse fill="none" stroke="red" cx="497.59" cy="-1134.4" rx="32.5" ry="18"/>
<text text-anchor="middle" x="497.59" y="-1130.7" font-family="Times,serif" font-size="14.00">floor</text>
</g>
<!-- pl14 -->
<g id="node31" class="node">
<title>pl14</title>
<ellipse fill="none" stroke="red" cx="501.59" cy="-1041.4" rx="36.5" ry="18"/>
<text text-anchor="middle" x="501.59" y="-1037.7" font-family="Times,serif" font-size="14.00">Crete</text>
</g>
<!-- pl15 -->
<g id="node32" class="node">
<title>pl15</title>
<ellipse fill="none" stroke="red" cx="1458.61" cy="-948.41" rx="32" ry="18"/>
<text text-anchor="middle" x="1458.61" y="-944.71" font-family="Times,serif" font-size="14.00">Italy</text>
</g>
<!-- pl16 -->
<g id="node33" class="node">
<title>pl16</title>
<ellipse fill="none" stroke="red" cx="600.59" cy="-545.41" rx="41.69" ry="18"/>
<text text-anchor="middle" x="600.59" y="-541.71" font-family="Times,serif" font-size="14.00">Toledo</text>
</g>
<!-- pl23 -->
<g id="node34" class="node">
<title>pl23</title>
<ellipse fill="none" stroke="red" cx="1460.61" cy="-1134.4" rx="34.5" ry="18"/>
<text text-anchor="middle" x="1460.61" y="-1130.7" font-family="Times,serif" font-size="14.00">Paris</text>
</g>
<!-- pl24 -->
<g id="node35" class="node">
<title>pl24</title>
<ellipse fill="none" stroke="red" cx="1374.61" cy="-576.41" rx="41" ry="18"/>
<text text-anchor="middle" x="1374.61" y="-572.71" font-family="Times,serif" font-size="14.00">Venice</text>
</g>
<!-- pl25 -->
<g id="node36" class="node">
<title>pl25</title>
<ellipse fill="none" stroke="red" cx="567.59" cy="-793.41" rx="39.79" ry="18"/>
<text text-anchor="middle" x="567.59" y="-789.71" font-family="Times,serif" font-size="14.00">rooms</text>
</g>
<!-- pl31 -->
<g id="node37" class="node">
<title>pl31</title>
<ellipse fill="none" stroke="red" cx="938.45" cy="-1134.4" rx="163.27" ry="18"/>
<text text-anchor="middle" x="938.45" y="-1130.7" font-family="Times,serif" font-size="14.00">Museo &#160;&#160;&#160;&#160;&#160;&#160;&#160;&#160;Thyssen&#45;Bor­nemizsa</text>
</g>
<!-- p2 -->
<g id="node38" class="node">
<title>p2</title>
<ellipse fill="none" stroke="blue" cx="1258.71" cy="-1134.4" rx="85.29" ry="18"/>
<text text-anchor="middle" x="1258.71" y="-1130.7" font-family="Times,serif" font-size="14.00">Paseo del Prado</text>
</g>
<!-- pl31&#45;&gt;p2 -->
<g id="edge15" class="edge">
<title>pl31&#45;&gt;p2</title>
<path fill="none" stroke="blue" d="M1101.91,-1134.4C1122.91,-1134.4 1143.81,-1134.4 1163.21,-1134.4"/>
<polygon fill="blue" stroke="blue" points="1163.21,-1137.9 1173.21,-1134.4 1163.21,-1130.9 1163.21,-1137.9"/>
<text text-anchor="middle" x="1132.51" y="-1123.2" font-family="Times,serif" font-size="14.00">ACROSS</text>
</g>
<!-- pl33 -->
<g id="node39" class="node">
<title>pl33</title>
<ellipse fill="none" stroke="red" cx="846.59" cy="-855.41" rx="40.5" ry="18"/>
<text text-anchor="middle" x="846.59" y="-851.71" font-family="Times,serif" font-size="14.00">palace</text>
</g>
<!-- pl85 -->
<g id="node40" class="node">
<title>pl85</title>
<ellipse fill="none" stroke="red" cx="1282.61" cy="-1227.4" rx="42.49" ry="18"/>
<text text-anchor="middle" x="1282.61" y="-1223.7" font-family="Times,serif" font-size="14.00">anchor</text>
</g>
<!-- pl86 -->
<g id="node41" class="node">
<title>pl86</title>
<ellipse fill="none" stroke="red" cx="461.59" cy="-359.41" rx="27.5" ry="18"/>
<text text-anchor="middle" x="461.59" y="-355.71" font-family="Times,serif" font-size="14.00">trio</text>
</g>
<!-- pl35 -->
<g id="node42" class="node">
<title>pl35</title>
<ellipse fill="none" stroke="red" cx="954.45" cy="-948.41" rx="54.69" ry="18"/>
<text text-anchor="middle" x="954.45" y="-944.71" font-family="Times,serif" font-size="14.00">landmark</text>
</g>
<!-- pl36 -->
<g id="node43" class="node">
<title>pl36</title>
<ellipse fill="none" stroke="red" cx="1166.21" cy="-948.41" rx="85.29" ry="18"/>
<text text-anchor="middle" x="1166.21" y="-944.71" font-family="Times,serif" font-size="14.00">old &#160;&#160;&#160;&#160;&#160;&#160;&#160;&#160;Madrid</text>
</g>
<!-- pl35&#45;&gt;pl36 -->
<g id="edge16" class="edge">
<title>pl35&#45;&gt;pl36</title>
<path fill="none" stroke="red" d="M1009.21,-948.41C1028.01,-948.41 1049.51,-948.41 1070.51,-948.41"/>
<polygon fill="red" stroke="red" points="1070.81,-951.91 1080.81,-948.41 1070.81,-944.91 1070.81,-951.91"/>
<text text-anchor="middle" x="1030.91" y="-952.21" font-family="Times,serif" font-size="14.00">IN</text>
</g>
<!-- pl39 -->
<g id="node44" class="node">
<title>pl39</title>
<ellipse fill="none" stroke="red" cx="1348.61" cy="-266.41" rx="38.5" ry="18"/>
<text text-anchor="middle" x="1348.61" y="-262.71" font-family="Times,serif" font-size="14.00">which</text>
</g>
<!-- pl38 -->
<g id="node45" class="node">
<title>pl38</title>
<ellipse fill="none" stroke="red" cx="1612.61" cy="-266.41" rx="93.68" ry="18"/>
<text text-anchor="middle" x="1612.61" y="-262.71" font-family="Times,serif" font-size="14.00">c/ Santa I­sa­bel 52</text>
</g>
<!-- pl39&#45;&gt;pl38 -->
<g id="edge17" class="edge">
<title>pl39&#45;&gt;pl38</title>
<path fill="none" stroke="red" d="M1387.01,-266.41C1418.91,-266.41 1465.81,-266.41 1508.61,-266.41"/>
<polygon fill="red" stroke="red" points="1508.81,-269.91 1518.81,-266.41 1508.81,-262.91 1508.81,-269.91"/>
<text text-anchor="middle" x="1438.81" y="-270.21" font-family="Times,serif" font-size="14.00">IN</text>
</g>
<!-- pl40 -->
<g id="node46" class="node">
<title>pl40</title>
<ellipse fill="none" stroke="red" cx="1174.51" cy="-266.41" rx="63.89" ry="18"/>
<text text-anchor="middle" x="1174.51" y="-262.71" font-family="Times,serif" font-size="14.00">Reina Sofía</text>
</g>
<!-- pl40&#45;&gt;pl39 -->
<g id="edge18" class="edge">
<title>pl40&#45;&gt;pl39</title>
<path fill="none" stroke="red" d="M1238.41,-266.41C1258.71,-266.41 1280.81,-266.41 1299.81,-266.41"/>
<polygon fill="red" stroke="red" points="1300.11,-269.91 1310.11,-266.41 1300.11,-262.91 1300.11,-269.91"/>
<text text-anchor="middle" x="1258.11" y="-270.21" font-family="Times,serif" font-size="14.00">EQ</text>
</g>
<!-- pl42 -->
<g id="node47" class="node">
<title>pl42</title>
<ellipse fill="none" stroke="red" cx="956.34" cy="-762.41" rx="119" ry="18"/>
<text text-anchor="middle" x="956.34" y="-758.71" font-family="Times,serif" font-size="14.00">Museum of Modern Art</text>
</g>
<!-- pl43 -->
<g id="node48" class="node">
<title>pl43</title>
<ellipse fill="none" stroke="red" cx="1202.51" cy="-762.41" rx="55.49" ry="18"/>
<text text-anchor="middle" x="1202.51" y="-758.71" font-family="Times,serif" font-size="14.00">New York</text>
</g>
<!-- pl42&#45;&gt;pl43 -->
<g id="edge19" class="edge">
<title>pl42&#45;&gt;pl43</title>
<path fill="none" stroke="red" d="M1075.51,-762.41C1096.71,-762.41 1118.11,-762.41 1137.11,-762.41"/>
<polygon fill="red" stroke="red" points="1137.11,-765.91 1147.11,-762.41 1137.11,-758.91 1137.11,-765.91"/>
<text text-anchor="middle" x="1097.31" y="-766.21" font-family="Times,serif" font-size="14.00">IN</text>
</g>
<!-- pl48 -->
<g id="node49" class="node">
<title>pl48</title>
<ellipse fill="none" stroke="red" cx="1327.31" cy="-948.51" rx="43.59" ry="18"/>
<text text-anchor="middle" x="1327.31" y="-944.81" font-family="Times,serif" font-size="14.00">garden</text>
</g>
<!-- pl48&#45;&gt;pl47 -->
<g id="edge20" class="edge">
<title>pl48&#45;&gt;pl47</title>
<path fill="none" stroke="red" d="M1331.11,-966.65C1340.81,-1012 1366.11,-1130.3 1377.61,-1184.5"/>
<polygon fill="red" stroke="red" points="1374.24,-1185.49 1379.81,-1194.5 1381.08,-1183.98 1374.24,-1185.49"/>
<text text-anchor="middle" x="1333.91" y="-1079.4" font-family="Times,serif" font-size="14.00">NTPP</text>
</g>
<!-- pl1 -->
<g id="node50" class="node">
<title>pl1</title>
<ellipse fill="none" stroke="red" cx="1065.61" cy="-1041.4" rx="60" ry="18"/>
<text text-anchor="middle" x="1065.61" y="-1037.7" font-family="Times,serif" font-size="14.00">Elsewhere</text>
</g>
<!-- se21 -->
<g id="node51" class="node">
<title>se21</title>
<ellipse fill="none" stroke="green" cx="1138.61" cy="-1227.4" rx="52.79" ry="18"/>
<text text-anchor="middle" x="1138.61" y="-1223.7" font-family="Times,serif" font-size="14.00">Guernica</text>
</g>
<!-- se42 -->
<g id="node52" class="node">
<title>se42</title>
<ellipse fill="none" stroke="green" cx="1484.61" cy="-421.41" rx="27.5" ry="18"/>
<text text-anchor="middle" x="1484.61" y="-417.71" font-family="Times,serif" font-size="14.00">you</text>
</g>
<!-- se2 -->
<g id="node53" class="node">
<title>se2</title>
<ellipse fill="none" stroke="green" cx="1249.41" cy="-1041.4" rx="52" ry="18"/>
<text text-anchor="middle" x="1249.41" y="-1037.7" font-family="Times,serif" font-size="14.00">portraits</text>
</g>
<!-- se2&#45;&gt;pl1 -->
<g id="edge21" class="edge">
<title>se2&#45;&gt;pl1</title>
<path fill="none" stroke="red" d="M1197.21,-1041.4C1178.11,-1041.4 1156.21,-1041.4 1135.91,-1041.4"/>
<polygon fill="red" stroke="red" points="1135.71,-1037.9 1125.71,-1041.4 1135.71,-1044.9 1135.71,-1037.9"/>
<text text-anchor="middle" x="1157.51" y="-1045.2" font-family="Times,serif" font-size="14.00">IN</text>
</g>
<!-- se5 -->
<g id="node54" class="node">
<title>se5</title>
<ellipse fill="none" stroke="green" cx="1174.61" cy="-1320.4" rx="27" ry="18"/>
<text text-anchor="middle" x="1174.61" y="-1316.7" font-family="Times,serif" font-size="14.00">he</text>
</g>
<!-- se43 -->
<g id="node55" class="node">
<title>se43</title>
<ellipse fill="none" stroke="green" cx="881.8" cy="-1041.4" rx="44.39" ry="18"/>
<text text-anchor="middle" x="881.8" y="-1037.7" font-family="Times,serif" font-size="14.00">studies</text>
</g>
<!-- se43&#45;&gt;pl1 -->
<g id="edge22" class="edge">
<title>se43&#45;&gt;pl1</title>
<path fill="none" stroke="red" d="M926.29,-1041.4C947.02,-1041.4 972.18,-1041.4 995.38,-1041.4"/>
<polygon fill="red" stroke="red" points="995.51,-1044.9 1005.51,-1041.4 995.51,-1037.9 995.51,-1044.9"/>
<text text-anchor="middle" x="951.84" y="-1045.2" font-family="Times,serif" font-size="14.00">IN</text>
</g>
<!-- se34 -->
<g id="node56" class="node">
<title>se34</title>
<ellipse fill="none" stroke="green" cx="1053.61" cy="-1320.4" rx="30" ry="18"/>
<text text-anchor="middle" x="1053.61" y="-1316.7" font-family="Times,serif" font-size="14.00">kids</text>
</g>
<!-- se35 -->
<g id="node57" class="node">
<title>se35</title>
<ellipse fill="none" stroke="green" cx="1000.61" cy="-1227.4" rx="39" ry="18"/>
<text text-anchor="middle" x="1000.61" y="-1223.7" font-family="Times,serif" font-size="14.00">lovers</text>
</g>
<!-- se36 -->
<g id="node58" class="node">
<title>se36</title>
<ellipse fill="none" stroke="green" cx="738.41" cy="-1537.7" rx="48.99" ry="18"/>
<text text-anchor="middle" x="738.41" y="-1534" font-family="Times,serif" font-size="14.00">displays</text>
</g>
<!-- se36&#45;&gt;pl75 -->
<g id="edge23" class="edge">
<title>se36&#45;&gt;pl75</title>
<path fill="none" stroke="red" d="M738.63,-1519.6C739.14,-1478 740.38,-1375.3 740.98,-1325.2"/>
<polygon fill="red" stroke="red" points="744.48,-1325.14 741.11,-1315.1 737.48,-1325.05 744.48,-1325.14"/>
<text text-anchor="middle" x="730.81" y="-1426.2" font-family="Times,serif" font-size="14.00">IN</text>
</g>
<!-- se37 -->
<g id="node59" class="node">
<title>se37</title>
<ellipse fill="none" stroke="green" cx="1577.21" cy="-983.32" rx="31.4" ry="18"/>
<text text-anchor="middle" x="1577.21" y="-979.62" font-family="Times,serif" font-size="14.00">arch</text>
</g>
<!-- se37&#45;&gt;pl79 -->
<g id="edge24" class="edge">
<title>se37&#45;&gt;pl79</title>
<path fill="none" stroke="red" d="M1568.51,-965.93C1557.61,-944.23 1538.91,-906.89 1526.21,-881.45"/>
<polygon fill="red" stroke="red" points="1529.27,-879.75 1521.71,-872.33 1522.99,-882.85 1529.27,-879.75"/>
<text text-anchor="middle" x="1532.81" y="-927.49" font-family="Times,serif" font-size="14.00">TPP</text>
</g>
<!-- se41 -->
<g id="node60" class="node">
<title>se41</title>
<ellipse fill="none" stroke="green" cx="1658.51" cy="-1146" rx="78.79" ry="18"/>
<text text-anchor="middle" x="1658.51" y="-1142.3" font-family="Times,serif" font-size="14.00">warrior&#45;angels</text>
</g>
<!-- se41&#45;&gt;se37 -->
<g id="edge25" class="edge">
<title>se41&#45;&gt;se37</title>
<path fill="none" stroke="blue" d="M1649.51,-1127.9C1635.21,-1099.3 1607.21,-1043.4 1590.51,-1010.1"/>
<polygon fill="blue" stroke="blue" points="1593.54,-1008.35 1586.01,-1000.9 1587.26,-1011.42 1593.54,-1008.35"/>
<text text-anchor="middle" x="1594.01" y="-1072.8" font-family="Times,serif" font-size="14.00">ABOVE</text>
</g>
<!-- se10 -->
<g id="node61" class="node">
<title>se10</title>
<ellipse fill="none" stroke="green" cx="529.59" cy="-1320.4" rx="33.29" ry="18"/>
<text text-anchor="middle" x="529.59" y="-1316.7" font-family="Times,serif" font-size="14.00">They</text>
</g>
<!-- se13 -->
<g id="node62" class="node">
<title>se13</title>
<ellipse fill="none" stroke="green" cx="73" cy="-810.28" rx="73" ry="18"/>
<text text-anchor="middle" x="73" y="-806.58" font-family="Times,serif" font-size="14.00">masterpieces</text>
</g>
<!-- se13&#45;&gt;pl2 -->
<g id="edge26" class="edge">
<title>se13&#45;&gt;pl2</title>
<path fill="none" stroke="red" d="M133.25,-800.12C268.42,-777.34 592.95,-722.64 707.61,-703.31"/>
<polygon fill="red" stroke="red" points="708.44,-706.72 717.73,-701.61 707.28,-699.82 708.44,-706.72"/>
<text text-anchor="middle" x="411.43" y="-755.52" font-family="Times,serif" font-size="14.00">IN</text>
</g>
<!-- se15 -->
<g id="node63" class="node">
<title>se15</title>
<ellipse fill="none" stroke="green" cx="430.59" cy="-886.41" rx="27" ry="18"/>
<text text-anchor="middle" x="430.59" y="-882.71" font-family="Times,serif" font-size="14.00">it</text>
</g>
<!-- se17 -->
<g id="node64" class="node">
<title>se17</title>
<ellipse fill="none" stroke="green" cx="132.66" cy="-396.39" rx="54" ry="18"/>
<text text-anchor="middle" x="132.66" y="-392.69" font-family="Times,serif" font-size="14.00">paintings</text>
</g>
<!-- se17&#45;&gt;pl2 -->
<g id="edge27" class="edge">
<title>se17&#45;&gt;pl2</title>
<path fill="none" stroke="red" d="M163.2,-411.27C267.23,-461.94 607.25,-627.56 715.31,-680.19"/>
<polygon fill="red" stroke="red" points="713.91,-683.4 724.44,-684.64 716.98,-677.11 713.91,-683.4"/>
<text text-anchor="middle" x="430.25" y="-549.53" font-family="Times,serif" font-size="14.00">IN</text>
</g>
<!-- se18 -->
<g id="node65" class="node">
<title>se18</title>
<ellipse fill="none" stroke="green" cx="1042.61" cy="-359.41" rx="112.5" ry="18"/>
<text text-anchor="middle" x="1042.61" y="-355.71" font-family="Times,serif" font-size="14.00">Adoration of the Magi</text>
</g>
<!-- se19 -->
<g id="node66" class="node">
<title>se19</title>
<ellipse fill="none" stroke="green" cx="930.59" cy="-545.41" rx="93" ry="18"/>
<text text-anchor="middle" x="930.59" y="-541.71" font-family="Times,serif" font-size="14.00">The Three Graces</text>
</g>
<!-- se20 -->
<g id="node67" class="node">
<title>se20</title>
<ellipse fill="none" stroke="green" cx="406.46" cy="-102.83" rx="55.49" ry="18"/>
<text text-anchor="middle" x="406.46" y="-99.13" font-family="Times,serif" font-size="14.00">collection</text>
</g>
<!-- se20&#45;&gt;pl2 -->
<g id="edge28" class="edge">
<title>se20&#45;&gt;pl2</title>
<path fill="none" stroke="red" d="M416.7,-120.6C465.6,-205.44 675.39,-569.41 733.57,-670.35"/>
<polygon fill="red" stroke="red" points="730.69,-672.37 738.72,-679.28 736.75,-668.87 730.69,-672.37"/>
<text text-anchor="middle" x="554.63" y="-399.28" font-family="Times,serif" font-size="14.00">NTPP</text>
</g>
<!-- se0 -->
<g id="node68" class="node">
<title>se0</title>
<ellipse fill="none" stroke="green" cx="844.23" cy="-18" rx="100.98" ry="18"/>
<text text-anchor="middle" x="844.23" y="-14.3" font-family="Times,serif" font-size="14.00">Surrender of Breda</text>
</g>
<!-- se0&#45;&gt;pl2 -->
<g id="edge29" class="edge">
<title>se0&#45;&gt;pl2</title>
<path fill="none" stroke="red" d="M841.68,-36.15C828.54,-129.33 768.65,-554.12 752.57,-668.16"/>
<polygon fill="red" stroke="red" points="749.08,-667.81 751.15,-678.2 756.01,-668.79 749.08,-667.81"/>
<text text-anchor="middle" x="776.62" y="-355.95" font-family="Times,serif" font-size="14.00">NTPP</text>
</g>
<!-- se22 -->
<g id="node69" class="node">
<title>se22</title>
<ellipse fill="none" stroke="green" cx="1481.81" cy="-1289.4" rx="55.49" ry="18"/>
<text text-anchor="middle" x="1481.81" y="-1285.7" font-family="Times,serif" font-size="14.00">collection</text>
</g>
<!-- se22&#45;&gt;pl29 -->
<g id="edge30" class="edge">
<title>se22&#45;&gt;pl29</title>
<path fill="none" stroke="red" d="M1537.21,-1289.4C1580.41,-1289.4 1642.11,-1289.4 1696.91,-1289.4"/>
<polygon fill="red" stroke="red" points="1697.11,-1292.9 1707.11,-1289.4 1697.11,-1285.9 1697.11,-1292.9"/>
<text text-anchor="middle" x="1596.61" y="-1293.2" font-family="Times,serif" font-size="14.00">NTPP</text>
</g>
<!-- se26 -->
<g id="node70" class="node">
<title>se26</title>
<ellipse fill="none" stroke="green" cx="985.89" cy="-855.41" rx="27" ry="18"/>
<text text-anchor="middle" x="985.89" y="-851.71" font-family="Times,serif" font-size="14.00">it</text>
</g>
<!-- se26&#45;&gt;pl33 -->
<g id="edge31" class="edge">
<title>se26&#45;&gt;pl33</title>
<path fill="none" stroke="red" d="M958.7,-855.41C941.14,-855.41 917.77,-855.41 896.91,-855.41"/>
<polygon fill="red" stroke="red" points="896.9,-851.91 886.9,-855.41 896.9,-858.91 896.9,-851.91"/>
<text text-anchor="middle" x="918.8" y="-859.21" font-family="Times,serif" font-size="14.00">IN</text>
</g>
<!-- se24 -->
<g id="node71" class="node">
<title>se24</title>
<ellipse fill="none" stroke="green" cx="649.59" cy="-948.41" rx="60" ry="18"/>
<text text-anchor="middle" x="649.59" y="-944.71" font-family="Times,serif" font-size="14.00">collections</text>
</g>
<!-- se29 -->
<g id="node72" class="node">
<title>se29</title>
<ellipse fill="none" stroke="green" cx="984.91" cy="-266.41" rx="54" ry="18"/>
<text text-anchor="middle" x="984.91" y="-262.71" font-family="Times,serif" font-size="14.00">paintings</text>
</g>
<!-- se29&#45;&gt;pl40 -->
<g id="edge32" class="edge">
<title>se29&#45;&gt;pl40</title>
<path fill="none" stroke="red" d="M1039.01,-266.41C1058.11,-266.41 1079.91,-266.41 1100.41,-266.41"/>
<polygon fill="red" stroke="red" points="1100.61,-269.91 1110.61,-266.41 1100.61,-262.91 1100.61,-269.91"/>
<text text-anchor="middle" x="1090.21" y="-270.21" font-family="Times,serif" font-size="14.00">NTPP</text>
</g>
<!-- se30 -->
<g id="node73" class="node">
<title>se30</title>
<ellipse fill="none" stroke="green" cx="644.59" cy="-1134.4" rx="55.49" ry="18"/>
<text text-anchor="middle" x="644.59" y="-1130.7" font-family="Times,serif" font-size="14.00">collection</text>
</g>
<!-- p4 -->
<g id="node74" class="node">
<title>p4</title>
<ellipse fill="none" stroke="blue" cx="1120.11" cy="-870.17" rx="67.69" ry="18"/>
<text text-anchor="middle" x="1120.11" y="-866.47" font-family="Times,serif" font-size="14.00">promenades</text>
</g>
<!-- p4&#45;&gt;pl65 -->
<g id="edge33" class="edge">
<title>p4&#45;&gt;pl65</title>
<path fill="none" stroke="red" d="M1149.61,-853.83C1206.71,-822.18 1332.31,-752.58 1395.61,-717.5"/>
<polygon fill="red" stroke="red" points="1397.45,-720.48 1404.51,-712.58 1394.06,-714.35 1397.45,-720.48"/>
<text text-anchor="middle" x="1263.61" y="-789.46" font-family="Times,serif" font-size="14.00">IN</text>
</g>
<!-- p5 -->
<g id="node75" class="node">
<title>p5</title>
<ellipse fill="none" stroke="blue" cx="1123.81" cy="-452.41" rx="33.29" ry="18"/>
<text text-anchor="middle" x="1123.81" y="-448.71" font-family="Times,serif" font-size="14.00">edge</text>
</g>
<!-- p5&#45;&gt;pl81 -->
<g id="edge34" class="edge">
<title>p5&#45;&gt;pl81</title>
<path fill="none" stroke="red" d="M1090.31,-452.41C1072.21,-452.41 1049.61,-452.41 1029.11,-452.41"/>
<polygon fill="red" stroke="red" points="1028.91,-448.91 1018.91,-452.41 1028.91,-455.91 1028.91,-448.91"/>
<text text-anchor="middle" x="1045.21" y="-456.21" font-family="Times,serif" font-size="14.00">TPP</text>
</g>
<!-- p3 -->
<g id="node76" class="node">
<title>p3</title>
<ellipse fill="none" stroke="blue" cx="592.59" cy="-266.41" rx="34.5" ry="18"/>
<text text-anchor="middle" x="592.59" y="-262.71" font-family="Times,serif" font-size="14.00">glass</text>
</g>
</g>
</svg>
